<svg xmlns="http://www.w3.org/2000/svg" width="6" height="5" viewBox="0 0 6 5">
   <g>
      <g>
         <g>
            <path fill="#fff" d="M4.886 2.727H4.66a.11.11 0 0 0-.114.114v1.136c0 .156-.055.29-.166.402a.547.547 0 0 1-.402.166H1.023A.547.547 0 0 1 .62 4.38a.547.547 0 0 1-.166-.402V1.023C.455.866.51.733.62.62a.547.547 0 0 1 .402-.166h2.5a.11.11 0 0 0 .081-.032.11.11 0 0 0 .032-.082V.114a.11.11 0 0 0-.032-.082A.11.11 0 0 0 3.523 0h-2.5C.74 0 .5.1.3.3c-.2.2-.3.441-.3.723v2.954c0 .282.1.523.3.723.2.2.441.3.723.3h2.954c.282 0 .523-.1.723-.3.2-.2.3-.441.3-.723V2.841a.11.11 0 0 0-.032-.082.11.11 0 0 0-.082-.032z" />
         </g>
         <g>
            <path fill="#fff" d="M5.931.069A.222.222 0 0 0 5.77 0h-1.85a.222.222 0 0 0-.163.069.222.222 0 0 0-.069.162c0 .063.023.117.07.163l.635.636-2.356 2.356a.114.114 0 0 0 0 .166l.412.412a.114.114 0 0 0 .166 0L4.97 1.608l.636.636c.046.046.1.069.163.069a.222.222 0 0 0 .162-.07A.222.222 0 0 0 6 2.082V.231A.222.222 0 0 0 5.931.07z" />
         </g>
      </g>
   </g>
</svg>