<?xml version="1.0" encoding="UTF-8"?>
<svg width="2050px" height="891px" viewBox="0 0 2050 891" version="1.1" xmlns="http://www.w3.org/2000/svg" xmlns:xlink="http://www.w3.org/1999/xlink">
    <defs>
        <linearGradient x1="50%" y1="63.1607207%" x2="50%" y2="0%" id="linearGradient-1">
            <stop stop-color="#884487" offset="0%"></stop>
            <stop stop-color="#AAFFF7" offset="100%"></stop>
        </linearGradient>
        <path d="M1784.718,0 L1784.71875,30.344 L1757.375,30.344 L1757.375,0 L1784.718,0 Z M1675.343,0 L1675.34375,30.344 L1648,30.344 L1648,0 L1675.343,0 Z M1648,60.969 L1648,74.640875 L1648,88.31275 L1648,101.984625 L1648,115.6565 L1648,129.328375 L1648,143.00025 L1648,156.672125 L1648,170.344 L1661.67188,170.344 L1675.34375,170.344 L1689.01562,170.344 L1702.6875,170.344 L1716.35938,170.344 L1730.03125,170.344 L1743.70312,170.344 L1757.375,170.344 L1771.04688,170.344 L1784.71875,170.344 L1784.71875,156.672125 L1784.71875,143.00025 L1771.04688,143.00025 L1757.375,143.00025 L1743.70312,143.00025 L1730.03125,143.00025 L1716.35938,143.00025 L1702.6875,143.00025 L1689.01562,143.00025 L1675.34375,143.00025 L1675.34375,129.328375 L1675.34375,115.6565 L1675.34375,101.984625 L1675.34375,88.31275 L1675.34375,74.640875 L1675.34375,60.969 L1675.34375,47.297125 L1675.34375,33.62525 L1661.67188,33.62525 L1648,33.62525 L1648,47.297125 L1648,60.969 Z M1648,200.969 L1648,214.640875 L1648,228.31275 L1648,241.984625 L1648,255.6565 L1661.67188,255.6565 L1675.34375,255.6565 L1689.01562,255.6565 L1702.6875,255.6565 L1716.35938,255.6565 L1730.03125,255.6565 L1743.70312,255.6565 L1757.375,255.6565 L1757.375,269.328375 L1757.375,283.00025 L1743.70312,283.00025 L1730.03125,283.00025 L1716.35938,283.00025 L1702.6875,283.00025 L1689.01562,283.00025 L1675.34375,283.00025 L1661.67188,283.00025 L1648,283.00025 L1648,296.672125 L1648,310.344 L1661.67188,310.344 L1675.34375,310.344 L1689.01562,310.344 L1702.6875,310.344 L1716.35938,310.344 L1730.03125,310.344 L1743.70312,310.344 L1757.375,310.344 L1771.04688,310.344 L1784.71875,310.344 L1784.71875,296.672125 L1784.71875,283.00025 L1784.71875,269.328375 L1784.71875,255.6565 L1784.71875,241.984625 L1784.71875,228.31275 L1771.04688,228.31275 L1757.375,228.31275 L1743.70312,228.31275 L1730.03125,228.31275 L1716.35938,228.31275 L1702.6875,228.31275 L1689.01562,228.31275 L1675.34375,228.31275 L1675.34375,214.640875 L1675.34375,200.969 L1689.01562,200.969 L1702.6875,200.969 L1716.35938,200.969 L1730.03125,200.969 L1743.70312,200.969 L1757.375,200.969 L1771.04688,200.969 L1784.71875,200.969 L1784.71875,187.297125 L1784.71875,173.62525 L1771.04688,173.62525 L1757.375,173.62525 L1743.70312,173.62525 L1730.03125,173.62525 L1716.35938,173.62525 L1702.6875,173.62525 L1689.01562,173.62525 L1675.34375,173.62525 L1661.67188,173.62525 L1648,173.62525 L1648,187.297125 L1648,200.969 Z" id="path-2"></path>
        <path d="M1614.718,433.00025 L1614.71875,463.34425 L1587.375,463.34425 L1587.375,433.00025 L1614.718,433.00025 Z M1505.343,433.00025 L1505.34375,463.34425 L1478,463.34425 L1478,433.00025 L1505.343,433.00025 Z M1478,493.96925 L1478,507.641125 L1478,521.313 L1478,534.984875 L1478,548.65675 L1478,562.328625 L1478,576.0005 L1478,589.672375 L1478,603.34425 L1491.67188,603.34425 L1505.34375,603.34425 L1519.01562,603.34425 L1532.6875,603.34425 L1546.35938,603.34425 L1560.03125,603.34425 L1573.70312,603.34425 L1587.375,603.34425 L1601.04688,603.34425 L1614.71875,603.34425 L1614.71875,589.672375 L1614.71875,576.0005 L1601.04688,576.0005 L1587.375,576.0005 L1573.70312,576.0005 L1560.03125,576.0005 L1546.35938,576.0005 L1532.6875,576.0005 L1519.01562,576.0005 L1505.34375,576.0005 L1505.34375,562.328625 L1505.34375,548.65675 L1505.34375,534.984875 L1505.34375,521.313 L1505.34375,507.641125 L1505.34375,493.96925 L1505.34375,480.297375 L1505.34375,466.6255 L1491.67188,466.6255 L1478,466.6255 L1478,480.297375 L1478,493.96925 Z M1478,633.96925 L1478,647.641125 L1478,661.313 L1478,674.984875 L1478,688.65675 L1491.67188,688.65675 L1505.34375,688.65675 L1519.01562,688.65675 L1532.6875,688.65675 L1546.35938,688.65675 L1560.03125,688.65675 L1573.70312,688.65675 L1587.375,688.65675 L1587.375,702.328625 L1587.375,716.0005 L1573.70312,716.0005 L1560.03125,716.0005 L1546.35938,716.0005 L1532.6875,716.0005 L1519.01562,716.0005 L1505.34375,716.0005 L1491.67188,716.0005 L1478,716.0005 L1478,729.672375 L1478,743.34425 L1491.67188,743.34425 L1505.34375,743.34425 L1519.01562,743.34425 L1532.6875,743.34425 L1546.35938,743.34425 L1560.03125,743.34425 L1573.70312,743.34425 L1587.375,743.34425 L1601.04688,743.34425 L1614.71875,743.34425 L1614.71875,729.672375 L1614.71875,716.0005 L1614.71875,702.328625 L1614.71875,688.65675 L1614.71875,674.984875 L1614.71875,661.313 L1601.04688,661.313 L1587.375,661.313 L1573.70312,661.313 L1560.03125,661.313 L1546.35938,661.313 L1532.6875,661.313 L1519.01562,661.313 L1505.34375,661.313 L1505.34375,647.641125 L1505.34375,633.96925 L1519.01562,633.96925 L1532.6875,633.96925 L1546.35938,633.96925 L1560.03125,633.96925 L1573.70312,633.96925 L1587.375,633.96925 L1601.04688,633.96925 L1614.71875,633.96925 L1614.71875,620.297375 L1614.71875,606.6255 L1601.04688,606.6255 L1587.375,606.6255 L1573.70312,606.6255 L1560.03125,606.6255 L1546.35938,606.6255 L1532.6875,606.6255 L1519.01562,606.6255 L1505.34375,606.6255 L1491.67188,606.6255 L1478,606.6255 L1478,620.297375 L1478,633.96925 Z" id="path-3"></path>
        <path d="M1386.718,558.00025 L1386.71875,588.34425 L1359.375,588.34425 L1359.375,558.00025 L1386.718,558.00025 Z M1277.343,558.00025 L1277.34375,588.34425 L1250,588.34425 L1250,558.00025 L1277.343,558.00025 Z M1250,618.96925 L1250,632.641125 L1250,646.313 L1250,659.984875 L1250,673.65675 L1250,687.328625 L1250,701.0005 L1250,714.672375 L1250,728.34425 L1263.67188,728.34425 L1277.34375,728.34425 L1291.01562,728.34425 L1304.6875,728.34425 L1318.35938,728.34425 L1332.03125,728.34425 L1345.70312,728.34425 L1359.375,728.34425 L1373.04688,728.34425 L1386.71875,728.34425 L1386.71875,714.672375 L1386.71875,701.0005 L1373.04688,701.0005 L1359.375,701.0005 L1345.70312,701.0005 L1332.03125,701.0005 L1318.35938,701.0005 L1304.6875,701.0005 L1291.01562,701.0005 L1277.34375,701.0005 L1277.34375,687.328625 L1277.34375,673.65675 L1277.34375,659.984875 L1277.34375,646.313 L1277.34375,632.641125 L1277.34375,618.96925 L1277.34375,605.297375 L1277.34375,591.6255 L1263.67188,591.6255 L1250,591.6255 L1250,605.297375 L1250,618.96925 Z M1250,758.96925 L1250,772.641125 L1250,786.313 L1250,799.984875 L1250,813.65675 L1263.67188,813.65675 L1277.34375,813.65675 L1291.01562,813.65675 L1304.6875,813.65675 L1318.35938,813.65675 L1332.03125,813.65675 L1345.70312,813.65675 L1359.375,813.65675 L1359.375,827.328625 L1359.375,841.0005 L1345.70312,841.0005 L1332.03125,841.0005 L1318.35938,841.0005 L1304.6875,841.0005 L1291.01562,841.0005 L1277.34375,841.0005 L1263.67188,841.0005 L1250,841.0005 L1250,854.672375 L1250,868.34425 L1263.67188,868.34425 L1277.34375,868.34425 L1291.01562,868.34425 L1304.6875,868.34425 L1318.35938,868.34425 L1332.03125,868.34425 L1345.70312,868.34425 L1359.375,868.34425 L1373.04688,868.34425 L1386.71875,868.34425 L1386.71875,854.672375 L1386.71875,841.0005 L1386.71875,827.328625 L1386.71875,813.65675 L1386.71875,799.984875 L1386.71875,786.313 L1373.04688,786.313 L1359.375,786.313 L1345.70312,786.313 L1332.03125,786.313 L1318.35938,786.313 L1304.6875,786.313 L1291.01562,786.313 L1277.34375,786.313 L1277.34375,772.641125 L1277.34375,758.96925 L1291.01562,758.96925 L1304.6875,758.96925 L1318.35938,758.96925 L1332.03125,758.96925 L1345.70312,758.96925 L1359.375,758.96925 L1373.04688,758.96925 L1386.71875,758.96925 L1386.71875,745.297375 L1386.71875,731.6255 L1373.04688,731.6255 L1359.375,731.6255 L1345.70312,731.6255 L1332.03125,731.6255 L1318.35938,731.6255 L1304.6875,731.6255 L1291.01562,731.6255 L1277.34375,731.6255 L1263.67188,731.6255 L1250,731.6255 L1250,745.297375 L1250,758.96925 Z" id="path-4"></path>
        <path d="M958.718,252.00025 L958.71875,282.34425 L931.375,282.34425 L931.375,252.00025 L958.718,252.00025 Z M849.343,252.00025 L849.34375,282.34425 L822,282.34425 L822,252.00025 L849.343,252.00025 Z M822,312.96925 L822,326.641125 L822,340.313 L822,353.984875 L822,367.65675 L822,381.328625 L822,395.0005 L822,408.672375 L822,422.34425 L835.671875,422.34425 L849.34375,422.34425 L863.015625,422.34425 L876.6875,422.34425 L890.359375,422.34425 L904.03125,422.34425 L917.703125,422.34425 L931.375,422.34425 L945.046875,422.34425 L958.71875,422.34425 L958.71875,408.672375 L958.71875,395.0005 L945.046875,395.0005 L931.375,395.0005 L917.703125,395.0005 L904.03125,395.0005 L890.359375,395.0005 L876.6875,395.0005 L863.015625,395.0005 L849.34375,395.0005 L849.34375,381.328625 L849.34375,367.65675 L849.34375,353.984875 L849.34375,340.313 L849.34375,326.641125 L849.34375,312.96925 L849.34375,299.297375 L849.34375,285.6255 L835.671875,285.6255 L822,285.6255 L822,299.297375 L822,312.96925 Z M822,452.96925 L822,466.641125 L822,480.313 L822,493.984875 L822,507.65675 L835.671875,507.65675 L849.34375,507.65675 L863.015625,507.65675 L876.6875,507.65675 L890.359375,507.65675 L904.03125,507.65675 L917.703125,507.65675 L931.375,507.65675 L931.375,521.328625 L931.375,535.0005 L917.703125,535.0005 L904.03125,535.0005 L890.359375,535.0005 L876.6875,535.0005 L863.015625,535.0005 L849.34375,535.0005 L835.671875,535.0005 L822,535.0005 L822,548.672375 L822,562.34425 L835.671875,562.34425 L849.34375,562.34425 L863.015625,562.34425 L876.6875,562.34425 L890.359375,562.34425 L904.03125,562.34425 L917.703125,562.34425 L931.375,562.34425 L945.046875,562.34425 L958.71875,562.34425 L958.71875,548.672375 L958.71875,535.0005 L958.71875,521.328625 L958.71875,507.65675 L958.71875,493.984875 L958.71875,480.313 L945.046875,480.313 L931.375,480.313 L917.703125,480.313 L904.03125,480.313 L890.359375,480.313 L876.6875,480.313 L863.015625,480.313 L849.34375,480.313 L849.34375,466.641125 L849.34375,452.96925 L863.015625,452.96925 L876.6875,452.96925 L890.359375,452.96925 L904.03125,452.96925 L917.703125,452.96925 L931.375,452.96925 L945.046875,452.96925 L958.71875,452.96925 L958.71875,439.297375 L958.71875,425.6255 L945.046875,425.6255 L931.375,425.6255 L917.703125,425.6255 L904.03125,425.6255 L890.359375,425.6255 L876.6875,425.6255 L863.015625,425.6255 L849.34375,425.6255 L835.671875,425.6255 L822,425.6255 L822,439.297375 L822,452.96925 Z" id="path-5"></path>
        <linearGradient x1="50%" y1="63.1607207%" x2="50%" y2="0%" id="linearGradient-6">
            <stop stop-color="#884487" offset="0%"></stop>
            <stop stop-color="#AAFFF7" offset="100%"></stop>
        </linearGradient>
        <path d="M902,609.00025 L902,632.805697 L902,643.902973 L902,655.00025 L913,655.00025 L924,655.00025 L935,655.00025 L946,655.00025 L957,655.00025 L968,655.00025 L979,655.00025 L990,655.00025 L1001,655.00025 L1012,655.00025 L1012,643.902973 L1012,632.805697 L1001,632.805697 L990,632.805697 L979,632.805697 L968,632.805697 L957,632.805697 L946,632.805697 L935,632.805697 L924,632.805697 L924,609.00025 L902,609.00025 Z M902,679.00025 L902,690.00025 L902,701.00025 L902,712.00025 L902,723.00025 L913,723.00025 L924,723.00025 L935,723.00025 L946,723.00025 L957,723.00025 L968,723.00025 L979,723.00025 L990,723.00025 L990,734.00025 L990,745.00025 L979,745.00025 L968,745.00025 L957,745.00025 L946,745.00025 L935,745.00025 L924,745.00025 L913,745.00025 L902,745.00025 L902,756.00025 L902,767.00025 L913,767.00025 L924,767.00025 L935,767.00025 L946,767.00025 L957,767.00025 L968,767.00025 L979,767.00025 L990,767.00025 L1001,767.00025 L1012,767.00025 L1012,756.00025 L1012,745.00025 L1012,734.00025 L1012,723.00025 L1012,712.00025 L1012,701.00025 L1001,701.00025 L990,701.00025 L979,701.00025 L968,701.00025 L957,701.00025 L946,701.00025 L935,701.00025 L924,701.00025 L924,690.00025 L924,679.00025 L935,679.00025 L946,679.00025 L957,679.00025 L968,679.00025 L979,679.00025 L990,679.00025 L1001,679.00025 L1012,679.00025 L1012,668.00025 L1012,657.00025 L1001,657.00025 L990,657.00025 L979,657.00025 L968,657.00025 L957,657.00025 L946,657.00025 L935,657.00025 L924,657.00025 L913,657.00025 L902,657.00025 L902,668.00025 L902,679.00025 Z" id="path-7"></path>
        <path d="M136.718,378.00025 L136.71875,408.34425 L109.375,408.34425 L109.375,378.00025 L136.718,378.00025 Z M27.343,378.00025 L27.34375,408.34425 L0,408.34425 L0,378.00025 L27.343,378.00025 Z M0,438.96925 L0,452.641125 L0,466.313 L0,479.984875 L0,493.65675 L0,507.328625 L0,521.0005 L0,534.672375 L0,548.34425 L13.671875,548.34425 L27.34375,548.34425 L41.015625,548.34425 L54.6875,548.34425 L68.359375,548.34425 L82.03125,548.34425 L95.703125,548.34425 L109.375,548.34425 L123.046875,548.34425 L136.71875,548.34425 L136.71875,534.672375 L136.71875,521.0005 L123.046875,521.0005 L109.375,521.0005 L95.703125,521.0005 L82.03125,521.0005 L68.359375,521.0005 L54.6875,521.0005 L41.015625,521.0005 L27.34375,521.0005 L27.34375,507.328625 L27.34375,493.65675 L27.34375,479.984875 L27.34375,466.313 L27.34375,452.641125 L27.34375,438.96925 L27.34375,425.297375 L27.34375,411.6255 L13.671875,411.6255 L0,411.6255 L0,425.297375 L0,438.96925 Z M0,578.96925 L0,592.641125 L0,606.313 L0,619.984875 L0,633.65675 L13.671875,633.65675 L27.34375,633.65675 L41.015625,633.65675 L54.6875,633.65675 L68.359375,633.65675 L82.03125,633.65675 L95.703125,633.65675 L109.375,633.65675 L109.375,647.328625 L109.375,661.0005 L95.703125,661.0005 L82.03125,661.0005 L68.359375,661.0005 L54.6875,661.0005 L41.015625,661.0005 L27.34375,661.0005 L13.671875,661.0005 L0,661.0005 L0,674.672375 L0,688.34425 L13.671875,688.34425 L27.34375,688.34425 L41.015625,688.34425 L54.6875,688.34425 L68.359375,688.34425 L82.03125,688.34425 L95.703125,688.34425 L109.375,688.34425 L123.046875,688.34425 L136.71875,688.34425 L136.71875,674.672375 L136.71875,661.0005 L136.71875,647.328625 L136.71875,633.65675 L136.71875,619.984875 L136.71875,606.313 L123.046875,606.313 L109.375,606.313 L95.703125,606.313 L82.03125,606.313 L68.359375,606.313 L54.6875,606.313 L41.015625,606.313 L27.34375,606.313 L27.34375,592.641125 L27.34375,578.96925 L41.015625,578.96925 L54.6875,578.96925 L68.359375,578.96925 L82.03125,578.96925 L95.703125,578.96925 L109.375,578.96925 L123.046875,578.96925 L136.71875,578.96925 L136.71875,565.297375 L136.71875,551.6255 L123.046875,551.6255 L109.375,551.6255 L95.703125,551.6255 L82.03125,551.6255 L68.359375,551.6255 L54.6875,551.6255 L41.015625,551.6255 L27.34375,551.6255 L13.671875,551.6255 L0,551.6255 L0,565.297375 L0,578.96925 Z" id="path-8"></path>
        <path d="M408.718,38.00025 L408.71875,68.34425 L381.375,68.34425 L381.375,38.00025 L408.718,38.00025 Z M299.343,38.00025 L299.34375,68.34425 L272,68.34425 L272,38.00025 L299.343,38.00025 Z M272,98.96925 L272,112.641125 L272,126.313 L272,139.984875 L272,153.65675 L272,167.328625 L272,181.0005 L272,194.672375 L272,208.34425 L285.671875,208.34425 L299.34375,208.34425 L313.015625,208.34425 L326.6875,208.34425 L340.359375,208.34425 L354.03125,208.34425 L367.703125,208.34425 L381.375,208.34425 L395.046875,208.34425 L408.71875,208.34425 L408.71875,194.672375 L408.71875,181.0005 L395.046875,181.0005 L381.375,181.0005 L367.703125,181.0005 L354.03125,181.0005 L340.359375,181.0005 L326.6875,181.0005 L313.015625,181.0005 L299.34375,181.0005 L299.34375,167.328625 L299.34375,153.65675 L299.34375,139.984875 L299.34375,126.313 L299.34375,112.641125 L299.34375,98.96925 L299.34375,85.297375 L299.34375,71.6255 L285.671875,71.6255 L272,71.6255 L272,85.297375 L272,98.96925 Z M272,238.96925 L272,252.641125 L272,266.313 L272,279.984875 L272,293.65675 L285.671875,293.65675 L299.34375,293.65675 L313.015625,293.65675 L326.6875,293.65675 L340.359375,293.65675 L354.03125,293.65675 L367.703125,293.65675 L381.375,293.65675 L381.375,307.328625 L381.375,321.0005 L367.703125,321.0005 L354.03125,321.0005 L340.359375,321.0005 L326.6875,321.0005 L313.015625,321.0005 L299.34375,321.0005 L285.671875,321.0005 L272,321.0005 L272,334.672375 L272,348.34425 L285.671875,348.34425 L299.34375,348.34425 L313.015625,348.34425 L326.6875,348.34425 L340.359375,348.34425 L354.03125,348.34425 L367.703125,348.34425 L381.375,348.34425 L395.046875,348.34425 L408.71875,348.34425 L408.71875,334.672375 L408.71875,321.0005 L408.71875,307.328625 L408.71875,293.65675 L408.71875,279.984875 L408.71875,266.313 L395.046875,266.313 L381.375,266.313 L367.703125,266.313 L354.03125,266.313 L340.359375,266.313 L326.6875,266.313 L313.015625,266.313 L299.34375,266.313 L299.34375,252.641125 L299.34375,238.96925 L313.015625,238.96925 L326.6875,238.96925 L340.359375,238.96925 L354.03125,238.96925 L367.703125,238.96925 L381.375,238.96925 L395.046875,238.96925 L408.71875,238.96925 L408.71875,225.297375 L408.71875,211.6255 L395.046875,211.6255 L381.375,211.6255 L367.703125,211.6255 L354.03125,211.6255 L340.359375,211.6255 L326.6875,211.6255 L313.015625,211.6255 L299.34375,211.6255 L285.671875,211.6255 L272,211.6255 L272,225.297375 L272,238.96925 Z" id="path-9"></path>
        <linearGradient x1="55.6803068%" y1="86.6162836%" x2="55.6803068%" y2="4.11911646%" id="linearGradient-10">
            <stop stop-color="#884487" offset="0%"></stop>
            <stop stop-color="#884487" offset="29.9834168%"></stop>
            <stop stop-color="#AAFFF7" offset="100%"></stop>
        </linearGradient>
        <path d="M1913,301.672125 L1913,315.344 L1926.67188,315.344 L1940.34375,315.344 L1954.01562,315.344 L1967.6875,315.344 L1981.35938,315.344 L1995.03125,315.344 L2008.70312,315.344 L2022.375,315.344 L2036.04688,315.344 L2049.71875,315.344 L2049.71875,301.672125 L1913,301.672125 Z M1913,345.969 L1913,359.640875 L1913,373.31275 L1913,386.984625 L1913,400.6565 L1926.67188,400.6565 L1940.34375,400.6565 L1954.01562,400.6565 L1967.6875,400.6565 L1981.35938,400.6565 L1995.03125,400.6565 L2008.70312,400.6565 L2022.375,400.6565 L2022.375,414.328375 L2022.375,428.00025 L2008.70312,428.00025 L1995.03125,428.00025 L1981.35938,428.00025 L1967.6875,428.00025 L1954.01562,428.00025 L1940.34375,428.00025 L1926.67188,428.00025 L1913,428.00025 L1913,441.672125 L1913,455.344 L1926.67188,455.344 L1940.34375,455.344 L1954.01562,455.344 L1967.6875,455.344 L1981.35938,455.344 L1995.03125,455.344 L2008.70312,455.344 L2022.375,455.344 L2036.04688,455.344 L2049.71875,455.344 L2049.71875,441.672125 L2049.71875,428.00025 L2049.71875,414.328375 L2049.71875,400.6565 L2049.71875,386.984625 L2049.71875,373.31275 L2036.04688,373.31275 L2022.375,373.31275 L2008.70312,373.31275 L1995.03125,373.31275 L1981.35938,373.31275 L1967.6875,373.31275 L1954.01562,373.31275 L1940.34375,373.31275 L1940.34375,359.640875 L1940.34375,345.969 L1954.01562,345.969 L1967.6875,345.969 L1981.35938,345.969 L1995.03125,345.969 L2008.70312,345.969 L2022.375,345.969 L2036.04688,345.969 L2049.71875,345.969 L2049.71875,332.297125 L2049.71875,318.62525 L2036.04688,318.62525 L2022.375,318.62525 L2008.70312,318.62525 L1995.03125,318.62525 L1981.35938,318.62525 L1967.6875,318.62525 L1954.01562,318.62525 L1940.34375,318.62525 L1926.67188,318.62525 L1913,318.62525 L1913,332.297125 L1913,345.969 Z M2049.71875,472.297125 L2049.71875,458.62525 L2036.04688,458.62525 L2022.375,458.62525 L2008.70312,458.62525 L1995.03125,458.62525 L1981.35938,458.62525 L1967.6875,458.62525 L1954.01562,458.62525 L1940.34375,458.62525 L1926.67188,458.62525 L1913,458.62525 L1913,472.297125 L1913,485.969 L1913,499.640875 L1913,513.31275 L1913,526.984625 L1913,540.6565 L1913,554.328375 L1913,568.00025 L1913,581.672125 L1913,595.344 L1926.67188,595.344 L1940.34375,595.344 L1940.34375,581.672125 L1940.34375,568.00025 L1940.34375,554.328375 L1940.34375,540.6565 L1954.01562,540.6565 L1967.6875,540.6565 L1981.35938,540.6565 L1995.03125,540.6565 L2008.70312,540.6565 L2022.375,540.6565 L2022.375,554.328375 L2022.375,568.00025 L2022.375,581.672125 L2022.375,595.344 L2036.04688,595.344 L2049.71875,595.344 L2049.71875,581.672125 L2049.71875,568.00025 L2049.71875,554.328375 L2049.71875,540.6565 L2049.71875,526.984625 L2049.71875,513.31275 L2049.71875,499.640875 L2049.71875,485.969 L2049.71875,472.297125 Z M1954.01562,485.969 L1967.6875,485.969 L1981.35938,485.969 L1995.03125,485.969 L2008.70312,485.969 L2022.375,485.969 L2022.375,499.640875 L2022.375,513.31275 L2008.70312,513.31275 L1995.03125,513.31275 L1981.35938,513.31275 L1967.6875,513.31275 L1954.01562,513.31275 L1940.34375,513.31275 L1940.34375,499.640875 L1940.34375,485.969 L1954.01562,485.969 Z" id="path-11"></path>
        <path d="M477,597.00025 L477,610.672125 L490.671875,610.672125 L504.34375,610.672125 L518.015625,610.672125 L531.6875,610.672125 L545.359375,610.672125 L559.03125,610.672125 L572.703125,610.672125 L586.375,610.672125 L600.046875,610.672125 L613.71875,610.672125 L613.71875,597.00025 L477,597.00025 Z M477,641.297125 L477,654.969 L477,668.640875 L477,682.31275 L477,695.984625 L490.671875,695.984625 L504.34375,695.984625 L518.015625,695.984625 L531.6875,695.984625 L545.359375,695.984625 L559.03125,695.984625 L572.703125,695.984625 L586.375,695.984625 L586.375,709.6565 L586.375,723.328375 L572.703125,723.328375 L559.03125,723.328375 L545.359375,723.328375 L531.6875,723.328375 L518.015625,723.328375 L504.34375,723.328375 L490.671875,723.328375 L477,723.328375 L477,737.00025 L477,750.672125 L490.671875,750.672125 L504.34375,750.672125 L518.015625,750.672125 L531.6875,750.672125 L545.359375,750.672125 L559.03125,750.672125 L572.703125,750.672125 L586.375,750.672125 L600.046875,750.672125 L613.71875,750.672125 L613.71875,737.00025 L613.71875,723.328375 L613.71875,709.6565 L613.71875,695.984625 L613.71875,682.31275 L613.71875,668.640875 L600.046875,668.640875 L586.375,668.640875 L572.703125,668.640875 L559.03125,668.640875 L545.359375,668.640875 L531.6875,668.640875 L518.015625,668.640875 L504.34375,668.640875 L504.34375,654.969 L504.34375,641.297125 L518.015625,641.297125 L531.6875,641.297125 L545.359375,641.297125 L559.03125,641.297125 L572.703125,641.297125 L586.375,641.297125 L600.046875,641.297125 L613.71875,641.297125 L613.71875,627.62525 L613.71875,613.953375 L600.046875,613.953375 L586.375,613.953375 L572.703125,613.953375 L559.03125,613.953375 L545.359375,613.953375 L531.6875,613.953375 L518.015625,613.953375 L504.34375,613.953375 L490.671875,613.953375 L477,613.953375 L477,627.62525 L477,641.297125 Z M613.71875,767.62525 L613.71875,753.953375 L600.046875,753.953375 L586.375,753.953375 L572.703125,753.953375 L559.03125,753.953375 L545.359375,753.953375 L531.6875,753.953375 L518.015625,753.953375 L504.34375,753.953375 L490.671875,753.953375 L477,753.953375 L477,767.62525 L477,781.297125 L477,794.969 L477,808.640875 L477,822.31275 L477,835.984625 L477,849.6565 L477,863.328375 L477,877.00025 L477,890.672125 L490.671875,890.672125 L504.34375,890.672125 L504.34375,877.00025 L504.34375,863.328375 L504.34375,849.6565 L504.34375,835.984625 L518.015625,835.984625 L531.6875,835.984625 L545.359375,835.984625 L559.03125,835.984625 L572.703125,835.984625 L586.375,835.984625 L586.375,849.6565 L586.375,863.328375 L586.375,877.00025 L586.375,890.672125 L600.046875,890.672125 L613.71875,890.672125 L613.71875,877.00025 L613.71875,863.328375 L613.71875,849.6565 L613.71875,835.984625 L613.71875,822.31275 L613.71875,808.640875 L613.71875,794.969 L613.71875,781.297125 L613.71875,767.62525 Z M518.015625,781.297125 L531.6875,781.297125 L545.359375,781.297125 L559.03125,781.297125 L572.703125,781.297125 L586.375,781.297125 L586.375,794.969 L586.375,808.640875 L572.703125,808.640875 L559.03125,808.640875 L545.359375,808.640875 L531.6875,808.640875 L518.015625,808.640875 L504.34375,808.640875 L504.34375,794.969 L504.34375,781.297125 L518.015625,781.297125 Z" id="path-12"></path>
    </defs>
    <g id="Page-1" stroke="none" stroke-width="1" fill="none" fill-rule="evenodd" opacity="0.200000003">
        <g id="Desktop" transform="translate(-248.000000, -3042.000000)" fill-rule="nonzero">
            <g id="Group-9" transform="translate(248.000000, 3042.000000)">
                <g id="PROPOSALS" opacity="0.101748512">
                    <use fill="#FFFFFF" xlink:href="#path-2"></use>
                    <use fill="url(#linearGradient-1)" xlink:href="#path-2"></use>
                </g>
                <g id="PROPOSALS-Copy" opacity="0.101748512">
                    <use fill="#FFFFFF" xlink:href="#path-3"></use>
                    <use fill="url(#linearGradient-1)" xlink:href="#path-3"></use>
                </g>
                <g id="PROPOSALS-Copy-2" opacity="0.101748512">
                    <use fill="#FFFFFF" xlink:href="#path-4"></use>
                    <use fill="url(#linearGradient-1)" xlink:href="#path-4"></use>
                </g>
                <g id="PROPOSALS-Copy-3" opacity="0.101748512">
                    <use fill="#FFFFFF" xlink:href="#path-5"></use>
                    <use fill="url(#linearGradient-1)" xlink:href="#path-5"></use>
                </g>
                <g id="PROPOSALS-Copy-6" opacity="0.101748512">
                    <use fill="#FFFFFF" xlink:href="#path-7"></use>
                    <use fill="url(#linearGradient-6)" xlink:href="#path-7"></use>
                </g>
                <g id="PROPOSALS-Copy-4" opacity="0.101748512">
                    <use fill="#FFFFFF" xlink:href="#path-8"></use>
                    <use fill="url(#linearGradient-1)" xlink:href="#path-8"></use>
                </g>
                <g id="PROPOSALS-Copy-5" opacity="0.101748512">
                    <use fill="#FFFFFF" xlink:href="#path-9"></use>
                    <use fill="url(#linearGradient-1)" xlink:href="#path-9"></use>
                </g>
                <g id="PROPOSA" opacity="0.101748512">
                    <use fill="#FFFFFF" xlink:href="#path-11"></use>
                    <use fill="url(#linearGradient-10)" xlink:href="#path-11"></use>
                </g>
                <g id="PROPOSA-Copy" opacity="0.101748512">
                    <use fill="#FFFFFF" xlink:href="#path-12"></use>
                    <use fill="url(#linearGradient-10)" xlink:href="#path-12"></use>
                </g>
            </g>
        </g>
    </g>
</svg>