<svg width="54" height="37" xmlns="http://www.w3.org/2000/svg" version="1.1" viewBox="0 0 54 37">
  <g>
    <g>
      <path d="M51.26251,36.99702h-9.32735c0,0 -2.65516,-0.00598 -2.65516,-2.75733v-18.31414c0,0 0.02761,-2.92748 2.75711,-2.92748h9.19128v-12.99807h2.75733v34.23969c0,0 0.12981,2.75699 -2.72321,2.75733zM43.57803,15.92555c-1.63246,0 -1.63246,1.2022 -1.63246,1.2022l-0.01041,15.20835c0,1.90359 1.67373,1.90359 1.67373,1.90359l5.95171,-0.01863c1.64211,0 1.66779,-1.8697 1.66779,-1.8697v-16.42581z" fill="#ffffff" fill-opacity="1"></path>
    </g>
    <g>
      <path d="M34.33165,15.92747h-14.67164c0,-2.62858 2.68925,-2.92747 2.68925,-2.92747h9.14001zM19.66002,34.24162h14.64378c0,0 0.02782,2.75733 -2.81452,2.75733h-9.14001zM19.66,23.58674h14.6716v2.74749h-14.6716z" fill="#ffffff" fill-opacity="1"></path>
    </g>
    <g>
      <path d="M11.98247,13v0h-11.98247c0,2.88593 2.85946,2.92747 2.85946,2.92747v0h8.16991v0l-11.02937,18.31415c0,2.74979 2.79138,2.75733 2.79138,2.75733v0h11.81229c0,-2.73064 -2.6212,-2.75733 -2.6212,-2.75733v0h-9.12301v0l11.74421,-18.31415c0,-2.92747 -2.6212,-2.92747 -2.6212,-2.92747v0" fill="#ffffff" fill-opacity="1"></path>
    </g>
    <g>
      <g>
        <path d="M11.98247,13v0h-11.98247c0,2.88593 2.85946,2.92747 2.85946,2.92747v0h8.16991v0l-11.02937,18.31415c0,2.74979 2.79138,2.75733 2.79138,2.75733v0h11.81229c0,-2.73064 -2.6212,-2.75733 -2.6212,-2.75733v0h-9.12301v0l11.74421,-18.31415c0,-2.92747 -2.6212,-2.92747 -2.6212,-2.92747v0" fill="#ffffff" fill-opacity="1"></path>
      </g>
      <g>
        <path d="M34.33165,15.92747h-14.67164c0,-2.62858 2.68925,-2.92747 2.68925,-2.92747h9.14001zM19.66002,34.24162h14.64378c0,0 0.02782,2.75733 -2.81452,2.75733h-9.14001zM19.66,23.58674h14.6716v2.74749h-14.6716z" fill="#ffffff" fill-opacity="1"></path>
      </g>
      <g>
        <path d="M51.26251,36.99702h-9.32735c0,0 -2.65516,-0.00598 -2.65516,-2.75733v-18.31414c0,0 0.02761,-2.92748 2.75711,-2.92748h9.19128v-12.99807h2.75733v34.23969c0,0 0.12981,2.75699 -2.72321,2.75733zM43.57803,15.92555c-1.63246,0 -1.63246,1.2022 -1.63246,1.2022l-0.01041,15.20835c0,1.90359 1.67373,1.90359 1.67373,1.90359l5.95171,-0.01863c1.64211,0 1.66779,-1.8697 1.66779,-1.8697v-16.42581z" fill="#ffffff" fill-opacity="1"></path>
      </g>
    </g>
  </g>
</svg>